<svg width="24" height="20" viewBox="0 0 24 20" fill="none" xmlns="http://www.w3.org/2000/svg">
<path d="M0 10C0 8.34315 1.34315 7 3 7H19C20.6569 7 22 8.34315 22 10V19C22 19.5523 21.5523 20 21 20H1C0.447716 20 0 19.5523 0 19V10Z" fill="black"/>
<rect x="7" y="13.0208" width="16.9853" height="7.05635" transform="rotate(-45 7 13.0208)" fill="#28BC03"/>
<rect x="8" y="13" width="15.5563" height="5.65685" transform="rotate(-45 8 13)" fill="#146400"/>
<rect x="3" y="12.0104" width="16.9853" height="7.05635" transform="rotate(-45 3 12.0104)" fill="#28BC03"/>
<rect x="3.99997" y="12" width="15.5563" height="5.65688" transform="rotate(-45 3.99997 12)" fill="#146400"/>
<path d="M1 9C1 8.44772 1.44772 8 2 8H19C20.6569 8 22 9.34315 22 11V19C22 19.5523 21.5523 20 21 20H2C1.44772 20 1 19.5523 1 19V9Z" fill="#FF0000"/>
<path d="M12.844 10.272C12.836 10.368 12.812 10.5 12.772 10.668C12.74 10.836 12.7 11 12.652 11.16C12.612 11.32 12.568 11.46 12.52 11.58C12.48 11.692 12.444 11.74 12.412 11.724C12.404 11.716 12.4 11.692 12.4 11.652C12.4 11.612 12.4 11.568 12.4 11.52C12.408 11.464 12.412 11.412 12.412 11.364C12.42 11.316 12.428 11.28 12.436 11.256C12.444 11.2 12.456 11.124 12.472 11.028C12.488 10.932 12.5 10.836 12.508 10.74C12.524 10.636 12.536 10.54 12.544 10.452C12.56 10.356 12.572 10.276 12.58 10.212C12.596 10.06 12.604 9.916 12.604 9.78C12.604 9.644 12.596 9.5 12.58 9.348C12.58 9.332 12.58 9.312 12.58 9.288C12.588 9.264 12.6 9.252 12.616 9.252C12.664 9.252 12.696 9.284 12.712 9.348C12.752 9.46 12.788 9.584 12.82 9.72C12.852 9.848 12.86 10.032 12.844 10.272ZM12.976 9.432C13.096 9.752 13.164 10.092 13.18 10.452C13.204 10.804 13.192 11.16 13.144 11.52C13.096 11.88 13.02 12.236 12.916 12.588C12.82 12.932 12.708 13.256 12.58 13.56C12.412 13.96 12.236 14.356 12.052 14.748C11.868 15.132 11.688 15.512 11.512 15.888C11.336 16.256 11.172 16.616 11.02 16.968C10.876 17.32 10.76 17.664 10.672 18C10.664 18.024 10.648 18.04 10.624 18.048C10.6 18.064 10.588 18.048 10.588 18C10.572 17.616 10.62 17.228 10.732 16.836C10.852 16.444 11 16.052 11.176 15.66C11.36 15.26 11.552 14.86 11.752 14.46C11.96 14.06 12.148 13.652 12.316 13.236C12.42 12.98 12.52 12.692 12.616 12.372C12.712 12.052 12.792 11.724 12.856 11.388C12.92 11.052 12.96 10.716 12.976 10.38C12.992 10.044 12.976 9.736 12.928 9.456C12.912 9.376 12.916 9.348 12.94 9.372L12.952 9.384C12.96 9.392 12.964 9.4 12.964 9.408C12.964 9.416 12.968 9.424 12.976 9.432ZM9.028 10.632C9.02 10.728 9 10.844 8.968 10.98C8.944 11.108 8.916 11.232 8.884 11.352C8.852 11.464 8.816 11.56 8.776 11.64C8.744 11.72 8.712 11.752 8.68 11.736C8.672 11.736 8.668 11.716 8.668 11.676C8.668 11.636 8.668 11.592 8.668 11.544C8.676 11.488 8.68 11.436 8.68 11.388C8.688 11.34 8.696 11.304 8.704 11.28C8.752 11.048 8.78 10.804 8.788 10.548C8.804 10.404 8.808 10.272 8.8 10.152C8.8 10.024 8.788 9.884 8.764 9.732C8.764 9.716 8.756 9.684 8.74 9.636C8.732 9.58 8.74 9.552 8.764 9.552C8.78 9.552 8.804 9.576 8.836 9.624L8.884 9.696C8.916 9.768 8.944 9.836 8.968 9.9C8.992 9.964 9.008 10.028 9.016 10.092C9.032 10.156 9.04 10.232 9.04 10.32C9.04 10.408 9.036 10.512 9.028 10.632ZM12.04 12.852C12.064 12.868 12.068 12.908 12.052 12.972C12.036 13.036 12.028 13.08 12.028 13.104C11.996 13.2 11.956 13.316 11.908 13.452C11.868 13.58 11.82 13.716 11.764 13.86C11.716 13.996 11.664 14.128 11.608 14.256C11.56 14.384 11.512 14.492 11.464 14.58C11.44 14.628 11.396 14.724 11.332 14.868C11.276 15.004 11.212 15.172 11.14 15.372C11.068 15.564 10.992 15.776 10.912 16.008C10.832 16.232 10.76 16.452 10.696 16.668C10.632 16.884 10.576 17.084 10.528 17.268C10.48 17.444 10.456 17.584 10.456 17.688C10.456 17.728 10.448 17.756 10.432 17.772C10.424 17.78 10.416 17.78 10.408 17.772C10.4 17.772 10.38 17.756 10.348 17.724C10.308 17.668 10.252 17.6 10.18 17.52C10.108 17.432 10.044 17.344 9.988 17.256C9.94 17.176 9.892 17.072 9.844 16.944C9.796 16.808 9.752 16.676 9.712 16.548C9.672 16.412 9.644 16.296 9.628 16.2C9.612 16.104 9.616 16.048 9.64 16.032C9.648 16.032 9.664 16.052 9.688 16.092C9.712 16.124 9.736 16.164 9.76 16.212C9.784 16.26 9.804 16.308 9.82 16.356C9.844 16.396 9.86 16.424 9.868 16.44C9.924 16.544 9.972 16.648 10.012 16.752C10.06 16.848 10.104 16.948 10.144 17.052C10.184 17.156 10.228 17.248 10.276 17.328C10.324 17.4 10.352 17.432 10.36 17.424C10.368 17.424 10.372 17.404 10.372 17.364C10.372 17.316 10.368 17.264 10.36 17.208C10.36 17.152 10.356 17.1 10.348 17.052C10.348 16.996 10.348 16.956 10.348 16.932C10.332 16.628 10.348 16.352 10.396 16.104C10.452 15.856 10.524 15.632 10.612 15.432C10.788 15.024 10.988 14.612 11.212 14.196C11.444 13.772 11.672 13.38 11.896 13.02C11.912 13.004 11.936 12.972 11.968 12.924C12.008 12.876 12.032 12.852 12.04 12.852ZM10.36 18C10.072 17.856 9.824 17.656 9.616 17.4C9.416 17.136 9.248 16.856 9.112 16.56C8.976 16.256 8.868 15.948 8.788 15.636C8.708 15.324 8.652 15.036 8.62 14.772C8.604 14.652 8.592 14.536 8.584 14.424C8.576 14.304 8.572 14.224 8.572 14.184C8.428 14.52 8.276 14.856 8.116 15.192C7.956 15.528 7.804 15.86 7.66 16.188C7.516 16.508 7.384 16.824 7.264 17.136C7.144 17.44 7.048 17.728 6.976 18C6.968 18.032 6.952 18.06 6.928 18.084C6.904 18.084 6.892 18.056 6.892 18C6.884 17.616 6.936 17.232 7.048 16.848C7.16 16.464 7.3 16.076 7.468 15.684C7.644 15.284 7.832 14.884 8.032 14.484C8.232 14.076 8.416 13.664 8.584 13.248C8.688 12.992 8.78 12.724 8.86 12.444C8.948 12.156 9.02 11.868 9.076 11.58C9.132 11.284 9.164 10.988 9.172 10.692C9.18 10.388 9.16 10.096 9.112 9.816C9.104 9.776 9.096 9.752 9.088 9.744C9.08 9.728 9.084 9.72 9.1 9.72C9.124 9.72 9.144 9.74 9.16 9.78C9.24 9.996 9.296 10.212 9.328 10.428C9.368 10.636 9.396 10.848 9.412 11.064C9.508 11.24 9.588 11.464 9.652 11.736C9.716 12 9.772 12.276 9.82 12.564C9.876 12.852 9.92 13.136 9.952 13.416C9.992 13.696 10.032 13.94 10.072 14.148C10.112 14.332 10.14 14.524 10.156 14.724C10.18 14.924 10.2 15.116 10.216 15.3C10.272 15.076 10.34 14.848 10.42 14.616C10.508 14.384 10.596 14.16 10.684 13.944C10.772 13.72 10.856 13.512 10.936 13.32C11.016 13.128 11.088 12.96 11.152 12.816C11.224 12.64 11.308 12.444 11.404 12.228C11.5 12.012 11.596 11.8 11.692 11.592C11.796 11.384 11.896 11.188 11.992 11.004C12.096 10.812 12.188 10.652 12.268 10.524C12.308 10.468 12.34 10.424 12.364 10.392C12.396 10.352 12.42 10.336 12.436 10.344C12.452 10.36 12.452 10.388 12.436 10.428C12.428 10.46 12.416 10.496 12.4 10.536C12.32 10.824 12.224 11.128 12.112 11.448C12 11.76 11.88 12.076 11.752 12.396C11.624 12.716 11.492 13.032 11.356 13.344C11.228 13.656 11.1 13.952 10.972 14.232C10.836 14.544 10.692 14.86 10.54 15.18C10.388 15.5 10.28 15.852 10.216 16.236C10.2 16.324 10.18 16.38 10.156 16.404C10.14 16.42 10.112 16.36 10.072 16.224C9.872 15.472 9.728 14.72 9.64 13.968C9.552 13.208 9.452 12.444 9.34 11.676C9.316 11.908 9.296 12.104 9.28 12.264C9.264 12.424 9.264 12.616 9.28 12.84C9.296 13.128 9.316 13.416 9.34 13.704C9.364 13.984 9.38 14.248 9.388 14.496C9.388 14.52 9.384 14.572 9.376 14.652C9.376 14.732 9.364 14.772 9.34 14.772C9.332 14.78 9.324 14.776 9.316 14.76C9.308 14.736 9.296 14.708 9.28 14.676C9.272 14.644 9.26 14.616 9.244 14.592C9.236 14.56 9.232 14.536 9.232 14.52C9.192 14.36 9.148 14.164 9.1 13.932C9.052 13.7 9.008 13.472 8.968 13.248C8.904 13.448 8.864 13.652 8.848 13.86C8.832 14.06 8.848 14.304 8.896 14.592C8.952 14.896 9.024 15.208 9.112 15.528C9.2 15.84 9.304 16.144 9.424 16.44C9.552 16.736 9.696 17.016 9.856 17.28C10.016 17.544 10.196 17.772 10.396 17.964C10.42 17.98 10.428 17.992 10.42 18C10.412 18.016 10.392 18.016 10.36 18ZM8.62 10.704C8.636 10.72 8.636 10.748 8.62 10.788C8.604 10.828 8.592 10.864 8.584 10.896C8.528 11.184 8.448 11.472 8.344 11.76C8.248 12.04 8.14 12.32 8.02 12.6C7.9 12.872 7.772 13.148 7.636 13.428C7.508 13.7 7.38 13.976 7.252 14.256C7.116 14.56 6.976 14.872 6.832 15.192C6.696 15.512 6.592 15.868 6.52 16.26C6.504 16.34 6.488 16.392 6.472 16.416C6.456 16.44 6.428 16.38 6.388 16.236C6.236 15.692 6.116 15.136 6.028 14.568C5.948 13.992 5.876 13.408 5.812 12.816C5.772 12.4 5.716 11.976 5.644 11.544C5.572 11.104 5.468 10.652 5.332 10.188C5.324 10.14 5.324 10.112 5.332 10.104C5.34 10.096 5.352 10.104 5.368 10.128C5.384 10.144 5.4 10.16 5.416 10.176C5.512 10.288 5.6 10.448 5.68 10.656C5.76 10.856 5.832 11.08 5.896 11.328C5.96 11.568 6.016 11.824 6.064 12.096C6.112 12.368 6.156 12.632 6.196 12.888C6.236 13.144 6.268 13.384 6.292 13.608C6.324 13.832 6.356 14.02 6.388 14.172C6.42 14.356 6.444 14.548 6.46 14.748C6.484 14.94 6.504 15.132 6.52 15.324C6.576 15.1 6.644 14.876 6.724 14.652C6.812 14.42 6.9 14.196 6.988 13.98C7.084 13.764 7.172 13.56 7.252 13.368C7.34 13.176 7.412 13.012 7.468 12.876C7.62 12.508 7.784 12.144 7.96 11.784C8.144 11.424 8.32 11.116 8.488 10.86C8.512 10.82 8.536 10.784 8.56 10.752C8.584 10.712 8.604 10.696 8.62 10.704ZM5.692 14.52C5.7 14.544 5.7 14.596 5.692 14.676C5.684 14.756 5.672 14.796 5.656 14.796C5.64 14.804 5.624 14.772 5.608 14.7C5.592 14.62 5.576 14.564 5.56 14.532C5.536 14.428 5.504 14.3 5.464 14.148C5.432 13.996 5.396 13.84 5.356 13.68C5.324 13.52 5.292 13.364 5.26 13.212C5.236 13.06 5.22 12.928 5.212 12.816C5.204 12.76 5.188 12.652 5.164 12.492C5.148 12.324 5.12 12.128 5.08 11.904C5.048 11.672 5.008 11.428 4.96 11.172C4.912 10.916 4.86 10.668 4.804 10.428C4.756 10.188 4.704 9.976 4.648 9.792C4.6 9.6 4.548 9.46 4.492 9.372C4.444 9.308 4.432 9.268 4.456 9.252C4.472 9.236 4.492 9.24 4.516 9.264C4.54 9.288 4.56 9.308 4.576 9.324C4.688 9.42 4.792 9.556 4.888 9.732C4.992 9.908 5.084 10.1 5.164 10.308C5.252 10.508 5.324 10.712 5.38 10.92C5.436 11.128 5.476 11.316 5.5 11.484C5.564 11.964 5.608 12.476 5.632 13.02C5.664 13.556 5.684 14.056 5.692 14.52ZM8.32 12.876C8.344 12.884 8.348 12.92 8.332 12.984C8.316 13.048 8.304 13.092 8.296 13.116C8.264 13.212 8.224 13.328 8.176 13.464C8.136 13.592 8.088 13.728 8.032 13.872C7.984 14.008 7.932 14.14 7.876 14.268C7.828 14.396 7.78 14.504 7.732 14.592C7.7 14.656 7.636 14.816 7.54 15.072C7.452 15.328 7.356 15.62 7.252 15.948C7.148 16.268 7.048 16.592 6.952 16.92C6.864 17.24 6.808 17.5 6.784 17.7C6.776 17.756 6.764 17.784 6.748 17.784C6.724 17.792 6.692 17.776 6.652 17.736C6.612 17.688 6.556 17.624 6.484 17.544C6.412 17.456 6.352 17.368 6.304 17.28C6.264 17.2 6.216 17.092 6.16 16.956C6.112 16.82 6.068 16.688 6.028 16.56C5.988 16.424 5.96 16.308 5.944 16.212C5.928 16.108 5.932 16.052 5.956 16.044C5.964 16.044 5.976 16.064 5.992 16.104C6.016 16.136 6.04 16.18 6.064 16.236C6.088 16.284 6.108 16.332 6.124 16.38C6.148 16.428 6.168 16.46 6.184 16.476C6.232 16.58 6.276 16.68 6.316 16.776C6.356 16.864 6.396 16.96 6.436 17.064C6.476 17.176 6.52 17.272 6.568 17.352C6.624 17.424 6.656 17.452 6.664 17.436C6.664 17.436 6.664 17.416 6.664 17.376C6.664 17.328 6.66 17.28 6.652 17.232C6.644 17.176 6.636 17.12 6.628 17.064C6.628 17.008 6.628 16.968 6.628 16.944C6.628 16.64 6.652 16.368 6.7 16.128C6.756 15.88 6.824 15.656 6.904 15.456C7.072 15.048 7.268 14.636 7.492 14.22C7.724 13.796 7.948 13.4 8.164 13.032C8.18 13.016 8.204 12.988 8.236 12.948C8.276 12.9 8.304 12.876 8.32 12.876ZM4.852 14.58C4.772 14.1 4.712 13.612 4.672 13.116C4.632 12.62 4.592 12.136 4.552 11.664C4.512 11.192 4.456 10.74 4.384 10.308C4.32 9.876 4.224 9.48 4.096 9.12C4.088 9.104 4.08 9.092 4.072 9.084C4.072 9.068 4.08 9.052 4.096 9.036C4.104 9.028 4.116 9.036 4.132 9.06C4.148 9.084 4.16 9.104 4.168 9.12C4.384 9.456 4.544 9.844 4.648 10.284C4.76 10.716 4.844 11.176 4.9 11.664C4.956 12.144 5 12.636 5.032 13.14C5.072 13.644 5.132 14.136 5.212 14.616C5.26 14.92 5.328 15.228 5.416 15.54C5.512 15.852 5.624 16.156 5.752 16.452C5.88 16.74 6.024 17.016 6.184 17.28C6.344 17.544 6.52 17.776 6.712 17.976C6.72 17.984 6.72 17.992 6.712 18C6.704 18.016 6.684 18.016 6.652 18C6.388 17.832 6.156 17.628 5.956 17.388C5.756 17.14 5.584 16.868 5.44 16.572C5.296 16.268 5.176 15.948 5.08 15.612C4.984 15.276 4.908 14.932 4.852 14.58ZM16.4775 17.496C16.7655 17.448 17.0415 17.36 17.3055 17.232C17.5775 17.104 17.8215 16.94 18.0375 16.74C18.0535 16.732 18.0855 16.704 18.1335 16.656C18.1815 16.608 18.2135 16.592 18.2295 16.608C18.2455 16.624 18.2415 16.648 18.2175 16.68C18.1935 16.712 18.1735 16.74 18.1575 16.764C17.9975 16.996 17.7855 17.188 17.5215 17.34C17.2655 17.484 16.9975 17.6 16.7175 17.688C16.4855 17.752 16.2375 17.776 15.9735 17.76C15.7095 17.736 15.4615 17.668 15.2295 17.556C15.1575 17.524 15.1135 17.5 15.0975 17.484C15.0815 17.46 15.0815 17.444 15.0975 17.436C15.1135 17.428 15.1375 17.424 15.1695 17.424C15.2095 17.424 15.2455 17.428 15.2775 17.436C15.3655 17.452 15.4655 17.468 15.5775 17.484C15.6975 17.492 15.8135 17.5 15.9255 17.508C16.0455 17.508 16.1535 17.508 16.2495 17.508C16.3455 17.508 16.4215 17.504 16.4775 17.496ZM14.8695 13.968C14.8295 14.248 14.8095 14.524 14.8095 14.796C14.8095 15.06 14.8255 15.312 14.8575 15.552C14.8975 15.784 14.9535 15.992 15.0255 16.176C15.1055 16.36 15.2015 16.512 15.3135 16.632C15.4415 16.76 15.5975 16.86 15.7815 16.932C15.9735 16.996 16.1775 17.028 16.3935 17.028C16.6175 17.028 16.8495 16.996 17.0895 16.932C17.3375 16.868 17.5815 16.768 17.8215 16.632C17.8695 16.6 17.9015 16.592 17.9175 16.608C17.9335 16.624 17.9255 16.644 17.8935 16.668C17.8695 16.684 17.8455 16.7 17.8215 16.716C17.6135 16.876 17.3935 17.004 17.1615 17.1C16.9295 17.196 16.6935 17.256 16.4535 17.28C16.2215 17.304 15.9935 17.292 15.7695 17.244C15.5535 17.188 15.3575 17.088 15.1815 16.944C15.0135 16.8 14.8775 16.628 14.7735 16.428C14.6695 16.22 14.5895 15.996 14.5335 15.756C14.4855 15.508 14.4575 15.252 14.4495 14.988C14.4415 14.724 14.4495 14.464 14.4735 14.208C14.5055 13.8 14.5855 13.388 14.7135 12.972C14.8415 12.556 15.0095 12.172 15.2175 11.82C15.4335 11.468 15.6895 11.16 15.9855 10.896C16.2815 10.632 16.6135 10.448 16.9815 10.344C17.1655 10.296 17.3535 10.276 17.5455 10.284C17.7375 10.292 17.9135 10.328 18.0735 10.392C18.2415 10.456 18.3855 10.552 18.5055 10.68C18.6255 10.8 18.7055 10.948 18.7455 11.124C18.7855 11.316 18.7695 11.504 18.6975 11.688C18.6255 11.864 18.5255 12.02 18.3975 12.156C18.2695 12.284 18.1255 12.376 17.9655 12.432C17.8055 12.488 17.6535 12.488 17.5095 12.432C17.5015 12.432 17.4935 12.42 17.4855 12.396C17.4855 12.372 17.5015 12.364 17.5335 12.372C17.6295 12.388 17.7375 12.368 17.8575 12.312C17.9855 12.248 18.0975 12.164 18.1935 12.06C18.2975 11.956 18.3775 11.832 18.4335 11.688C18.4975 11.544 18.5175 11.396 18.4935 11.244C18.4695 11.132 18.4175 11.036 18.3375 10.956C18.2655 10.868 18.1695 10.8 18.0495 10.752C17.9295 10.696 17.7935 10.66 17.6415 10.644C17.4975 10.628 17.3455 10.636 17.1855 10.668C16.8815 10.724 16.5975 10.86 16.3335 11.076C16.0775 11.284 15.8495 11.54 15.6495 11.844C15.4495 12.148 15.2815 12.488 15.1455 12.864C15.0095 13.232 14.9175 13.6 14.8695 13.968ZM15.8175 17.94C15.9055 17.948 15.9935 17.952 16.0815 17.952C16.1775 17.952 16.2255 17.964 16.2255 17.988C16.2255 17.996 16.2095 18 16.1775 18C16.1455 18.008 16.1095 18.012 16.0695 18.012C16.0375 18.012 16.0015 18.012 15.9615 18.012C15.9215 18.012 15.8975 18.012 15.8895 18.012C15.6415 18.012 15.3975 17.976 15.1575 17.904C14.9175 17.832 14.6935 17.732 14.4855 17.604C14.2855 17.468 14.1055 17.304 13.9455 17.112C13.7855 16.92 13.6655 16.7 13.5855 16.452C13.4255 15.964 13.3335 15.488 13.3095 15.024C13.2855 14.56 13.3055 14.104 13.3695 13.656C13.4015 13.4 13.4615 13.112 13.5495 12.792C13.6455 12.464 13.7695 12.132 13.9215 11.796C14.0815 11.46 14.2775 11.128 14.5095 10.8C14.7495 10.472 15.0335 10.172 15.3615 9.9C15.7055 9.612 16.0855 9.42 16.5015 9.324C16.9255 9.228 17.3295 9.212 17.7135 9.276C18.0975 9.34 18.4375 9.476 18.7335 9.684C19.0295 9.884 19.2255 10.14 19.3215 10.452C19.3295 10.468 19.3375 10.504 19.3455 10.56C19.3535 10.608 19.3495 10.64 19.3335 10.656C19.3255 10.664 19.3135 10.644 19.2975 10.596C19.2815 10.548 19.2655 10.516 19.2495 10.5C18.9135 10.044 18.5335 9.756 18.1095 9.636C17.6855 9.508 17.2655 9.496 16.8495 9.6C16.4335 9.696 16.0415 9.88 15.6735 10.152C15.3055 10.416 15.0135 10.712 14.7975 11.04C14.4215 11.608 14.1335 12.212 13.9335 12.852C13.7415 13.492 13.6535 14.152 13.6695 14.832C13.6775 15.144 13.7095 15.472 13.7655 15.816C13.8295 16.16 13.9495 16.488 14.1255 16.8C14.3015 17.12 14.5415 17.388 14.8455 17.604C15.1575 17.812 15.4815 17.924 15.8175 17.94ZM14.0895 13.428C14.1535 13.004 14.2535 12.592 14.3895 12.192C14.5335 11.792 14.7175 11.428 14.9415 11.1C15.1735 10.764 15.4575 10.476 15.7935 10.236C16.1295 9.996 16.5255 9.828 16.9815 9.732C17.1415 9.7 17.3215 9.688 17.5215 9.696C17.7215 9.696 17.9215 9.732 18.1215 9.804C18.3215 9.868 18.5055 9.968 18.6735 10.104C18.8495 10.24 18.9935 10.428 19.1055 10.668C19.2095 10.9 19.2455 11.128 19.2135 11.352C19.1815 11.576 19.1135 11.78 19.0095 11.964C18.9055 12.14 18.7775 12.288 18.6255 12.408C18.4735 12.528 18.3255 12.596 18.1815 12.612C18.0935 12.628 18.0455 12.628 18.0375 12.612C18.0295 12.588 18.0735 12.56 18.1695 12.528C18.3215 12.48 18.4735 12.36 18.6255 12.168C18.7855 11.968 18.8815 11.716 18.9135 11.412C18.9295 11.26 18.9095 11.112 18.8535 10.968C18.7975 10.816 18.7175 10.684 18.6135 10.572C18.5095 10.46 18.3855 10.364 18.2415 10.284C18.0975 10.204 17.9455 10.152 17.7855 10.128C17.4415 10.08 17.1255 10.104 16.8375 10.2C16.5495 10.296 16.2975 10.42 16.0815 10.572C15.8735 10.716 15.7015 10.86 15.5655 11.004C15.4375 11.148 15.3575 11.244 15.3255 11.292C15.0775 11.604 14.8615 11.944 14.6775 12.312C14.4935 12.672 14.3415 13.052 14.2215 13.452C14.2215 13.46 14.2135 13.488 14.1975 13.536C14.1895 13.584 14.1775 13.636 14.1615 13.692C14.1535 13.74 14.1415 13.788 14.1255 13.836C14.1095 13.876 14.0975 13.896 14.0895 13.896C14.0735 13.896 14.0655 13.872 14.0655 13.824C14.0655 13.776 14.0655 13.728 14.0655 13.68C14.0655 13.624 14.0695 13.572 14.0775 13.524C14.0855 13.476 14.0895 13.444 14.0895 13.428Z" fill="white"/>
</svg>
