<svg width="84" height="50" viewBox="0 0 84 50" fill="none" xmlns="http://www.w3.org/2000/svg">
<path d="M48.168 7.69308C48.1253 8.20509 47.9973 8.90909 47.784 9.80509C47.6133 10.7011 47.4 11.5758 47.144 12.4291C46.9307 13.2824 46.696 14.0291 46.44 14.6691C46.2267 15.2664 46.0347 15.5224 45.864 15.4371C45.8213 15.3944 45.8 15.2664 45.8 15.0531C45.8 14.8398 45.8 14.6051 45.8 14.3491C45.8427 14.0504 45.864 13.7731 45.864 13.5171C45.9067 13.2611 45.9493 13.0691 45.992 12.9411C46.0347 12.6424 46.0987 12.2371 46.184 11.7251C46.2693 11.2131 46.3333 10.7011 46.376 10.1891C46.4613 9.63442 46.5253 9.12242 46.568 8.65309C46.6533 8.14109 46.7173 7.71442 46.76 7.37309C46.8453 6.56242 46.888 5.79442 46.888 5.06908C46.888 4.34375 46.8453 3.57575 46.76 2.76509C46.76 2.67975 46.76 2.57309 46.76 2.44509C46.8027 2.31709 46.8667 2.25309 46.952 2.25309C47.208 2.25309 47.3787 2.42375 47.464 2.76509C47.6773 3.36242 47.8693 4.02375 48.04 4.74908C48.2107 5.43175 48.2533 6.41309 48.168 7.69308ZM48.872 3.21309C49.512 4.91975 49.8747 6.73309 49.96 8.65309C50.088 10.5304 50.024 12.4291 49.768 14.3491C49.512 16.2691 49.1067 18.1678 48.552 20.0451C48.04 21.8798 47.4427 23.6078 46.76 25.2291C45.864 27.3624 44.9253 29.4744 43.944 31.5651C42.9627 33.6131 42.0027 35.6398 41.064 37.6451C40.1253 39.6078 39.2507 41.5278 38.44 43.4051C37.672 45.2824 37.0533 47.1171 36.584 48.9091C36.5413 49.0371 36.456 49.1224 36.328 49.1651C36.2 49.2504 36.136 49.1651 36.136 48.9091C36.0507 46.8611 36.3067 44.7918 36.904 42.7011C37.544 40.6104 38.3333 38.5198 39.272 36.4291C40.2533 34.2958 41.2773 32.1624 42.344 30.0291C43.4533 27.8958 44.456 25.7198 45.352 23.5011C45.9067 22.1358 46.44 20.5998 46.952 18.8931C47.464 17.1864 47.8907 15.4371 48.232 13.6451C48.5733 11.8531 48.7867 10.0611 48.872 8.26908C48.9573 6.47709 48.872 4.83442 48.616 3.34109C48.5307 2.91442 48.552 2.76508 48.68 2.89309L48.744 2.95708C48.7867 2.99975 48.808 3.04242 48.808 3.08509C48.808 3.12775 48.8293 3.17042 48.872 3.21309ZM27.816 9.61309C27.7733 10.1251 27.6667 10.7438 27.496 11.4691C27.368 12.1518 27.2187 12.8131 27.048 13.4531C26.8773 14.0504 26.6853 14.5624 26.472 14.9891C26.3013 15.4158 26.1307 15.5864 25.96 15.5011C25.9173 15.5011 25.896 15.3944 25.896 15.1811C25.896 14.9678 25.896 14.7331 25.896 14.4771C25.9387 14.1784 25.96 13.9011 25.96 13.6451C26.0027 13.3891 26.0453 13.1971 26.088 13.0691C26.344 11.8318 26.4933 10.5304 26.536 9.16508C26.6213 8.39708 26.6427 7.69308 26.6 7.05309C26.6 6.37042 26.536 5.62375 26.408 4.81309C26.408 4.72775 26.3653 4.55709 26.28 4.30109C26.2373 4.00242 26.28 3.85308 26.408 3.85308C26.4933 3.85308 26.6213 3.98109 26.792 4.23709L27.048 4.62109C27.2187 5.00509 27.368 5.36775 27.496 5.70909C27.624 6.05042 27.7093 6.39175 27.752 6.73309C27.8373 7.07442 27.88 7.47975 27.88 7.94909C27.88 8.41842 27.8587 8.97309 27.816 9.61309ZM43.88 21.4531C44.008 21.5384 44.0293 21.7518 43.944 22.0931C43.8587 22.4344 43.816 22.6691 43.816 22.7971C43.6453 23.3091 43.432 23.9278 43.176 24.6531C42.9627 25.3358 42.7067 26.0611 42.408 26.8291C42.152 27.5544 41.8747 28.2584 41.576 28.9411C41.32 29.6238 41.064 30.1998 40.808 30.6691C40.68 30.9251 40.4453 31.4371 40.104 32.2051C39.8053 32.9304 39.464 33.8264 39.08 34.8931C38.696 35.9171 38.2907 37.0478 37.864 38.2851C37.4373 39.4798 37.0533 40.6531 36.712 41.8051C36.3707 42.9571 36.072 44.0238 35.816 45.0051C35.56 45.9438 35.432 46.6904 35.432 47.2451C35.432 47.4584 35.3893 47.6078 35.304 47.6931C35.2613 47.7358 35.2187 47.7358 35.176 47.6931C35.1333 47.6931 35.0267 47.6078 34.856 47.4371C34.6427 47.1384 34.344 46.7758 33.96 46.3491C33.576 45.8798 33.2347 45.4104 32.936 44.9411C32.68 44.5144 32.424 43.9598 32.168 43.2771C31.912 42.5518 31.6773 41.8478 31.464 41.1651C31.2507 40.4398 31.1013 39.8211 31.016 39.3091C30.9307 38.7971 30.952 38.4984 31.08 38.4131C31.1227 38.4131 31.208 38.5198 31.336 38.7331C31.464 38.9038 31.592 39.1171 31.72 39.3731C31.848 39.6291 31.9547 39.8851 32.04 40.1411C32.168 40.3544 32.2533 40.5038 32.296 40.5891C32.5947 41.1438 32.8507 41.6984 33.064 42.2531C33.32 42.7651 33.5547 43.2984 33.768 43.8531C33.9813 44.4078 34.216 44.8984 34.472 45.3251C34.728 45.7091 34.8773 45.8798 34.92 45.8371C34.9627 45.8371 34.984 45.7304 34.984 45.5171C34.984 45.2611 34.9627 44.9838 34.92 44.6851C34.92 44.3864 34.8987 44.1091 34.856 43.8531C34.856 43.5544 34.856 43.3411 34.856 43.2131C34.7707 41.5918 34.856 40.1198 35.112 38.7971C35.4107 37.4744 35.7947 36.2798 36.264 35.2131C37.2027 33.0371 38.2693 30.8398 39.464 28.6211C40.7013 26.3598 41.9173 24.2691 43.112 22.3491C43.1973 22.2638 43.3253 22.0931 43.496 21.8371C43.7093 21.5811 43.8373 21.4531 43.88 21.4531ZM34.92 48.9091C33.384 48.1411 32.0613 47.0744 30.952 45.7091C29.8853 44.3011 28.9893 42.8078 28.264 41.2291C27.5387 39.6078 26.9627 37.9651 26.536 36.3011C26.1093 34.6371 25.8107 33.1011 25.64 31.6931C25.5547 31.0531 25.4907 30.4344 25.448 29.8371C25.4053 29.1971 25.384 28.7704 25.384 28.5571C24.616 30.3491 23.8053 32.1411 22.952 33.9331C22.0987 35.7251 21.288 37.4958 20.52 39.2451C19.752 40.9518 19.048 42.6371 18.408 44.3011C17.768 45.9224 17.256 47.4584 16.872 48.9091C16.8293 49.0798 16.744 49.2291 16.616 49.3571C16.488 49.3571 16.424 49.2078 16.424 48.9091C16.3813 46.8611 16.6587 44.8131 17.256 42.7651C17.8533 40.7171 18.6 38.6478 19.496 36.5571C20.4347 34.4238 21.4373 32.2904 22.504 30.1571C23.5707 27.9811 24.552 25.7838 25.448 23.5651C26.0027 22.1998 26.4933 20.7704 26.92 19.2771C27.3893 17.7411 27.7733 16.2051 28.072 14.6691C28.3707 13.0904 28.5413 11.5118 28.584 9.93309C28.6267 8.31175 28.52 6.75442 28.264 5.26109C28.2213 5.04775 28.1787 4.91975 28.136 4.87709C28.0933 4.79175 28.1147 4.74908 28.2 4.74908C28.328 4.74908 28.4347 4.85575 28.52 5.06908C28.9467 6.22108 29.2453 7.37309 29.416 8.52509C29.6293 9.63442 29.7787 10.7651 29.864 11.9171C30.376 12.8558 30.8027 14.0504 31.144 15.5011C31.4853 16.9091 31.784 18.3811 32.04 19.9171C32.3387 21.4531 32.5733 22.9678 32.744 24.4611C32.9573 25.9544 33.1707 27.2558 33.384 28.3651C33.5973 29.3464 33.7467 30.3704 33.832 31.4371C33.96 32.5038 34.0667 33.5278 34.152 34.5091C34.4507 33.3144 34.8133 32.0984 35.24 30.8611C35.7093 29.6238 36.1787 28.4291 36.648 27.2771C37.1173 26.0824 37.5653 24.9731 37.992 23.9491C38.4187 22.9251 38.8027 22.0291 39.144 21.2611C39.528 20.3224 39.976 19.2771 40.488 18.1251C41 16.9731 41.512 15.8424 42.024 14.7331C42.5787 13.6238 43.112 12.5784 43.624 11.5971C44.1787 10.5731 44.6693 9.71975 45.096 9.03709C45.3093 8.73842 45.48 8.50375 45.608 8.33309C45.7787 8.11975 45.9067 8.03442 45.992 8.07709C46.0773 8.16242 46.0773 8.31175 45.992 8.52509C45.9493 8.69575 45.8853 8.88775 45.8 9.10109C45.3733 10.6371 44.8613 12.2584 44.264 13.9651C43.6667 15.6291 43.0267 17.3144 42.344 19.0211C41.6613 20.7278 40.9573 22.4131 40.232 24.0771C39.5493 25.7411 38.8667 27.3198 38.184 28.8131C37.4587 30.4771 36.6907 32.1624 35.88 33.8691C35.0693 35.5758 34.4933 37.4531 34.152 39.5011C34.0667 39.9704 33.96 40.2691 33.832 40.3971C33.7467 40.4824 33.5973 40.1624 33.384 39.4371C32.3173 35.4264 31.5493 31.4158 31.08 27.4051C30.6107 23.3518 30.0773 19.2771 29.48 15.1811C29.352 16.4184 29.2453 17.4638 29.16 18.3171C29.0747 19.1704 29.0747 20.1944 29.16 21.3891C29.2453 22.9251 29.352 24.4611 29.48 25.9971C29.608 27.4904 29.6933 28.8984 29.736 30.2211C29.736 30.3491 29.7147 30.6264 29.672 31.0531C29.672 31.4798 29.608 31.6931 29.48 31.6931C29.4373 31.7358 29.3947 31.7144 29.352 31.6291C29.3093 31.5011 29.2453 31.3518 29.16 31.1811C29.1173 31.0104 29.0533 30.8611 28.968 30.7331C28.9253 30.5624 28.904 30.4344 28.904 30.3491C28.6907 29.4958 28.456 28.4504 28.2 27.2131C27.944 25.9758 27.7093 24.7598 27.496 23.5651C27.1547 24.6318 26.9413 25.7198 26.856 26.8291C26.7707 27.8958 26.856 29.1971 27.112 30.7331C27.4107 32.3544 27.7947 34.0184 28.264 35.7251C28.7333 37.3891 29.288 39.0104 29.928 40.5891C30.6107 42.1678 31.3787 43.6611 32.232 45.0691C33.0853 46.4771 34.0453 47.6931 35.112 48.7171C35.24 48.8024 35.2827 48.8664 35.24 48.9091C35.1973 48.9944 35.0907 48.9944 34.92 48.9091ZM25.64 9.99709C25.7253 10.0824 25.7253 10.2318 25.64 10.4451C25.5547 10.6584 25.4907 10.8504 25.448 11.0211C25.1493 12.5571 24.7227 14.0931 24.168 15.6291C23.656 17.1224 23.08 18.6158 22.44 20.1091C21.8 21.5598 21.1173 23.0318 20.392 24.5251C19.7093 25.9758 19.0267 27.4478 18.344 28.9411C17.6187 30.5624 16.872 32.2264 16.104 33.9331C15.3787 35.6398 14.824 37.5384 14.44 39.6291C14.3547 40.0558 14.2693 40.3331 14.184 40.4611C14.0987 40.5891 13.9493 40.2691 13.736 39.5011C12.9253 36.5998 12.2853 33.6344 11.816 30.6051C11.3893 27.5331 11.0053 24.4184 10.664 21.2611C10.4507 19.0424 10.152 16.7811 9.768 14.4771C9.384 12.1304 8.82933 9.71975 8.104 7.24509C8.06133 6.98909 8.06133 6.83975 8.104 6.79708C8.14667 6.75442 8.21067 6.79709 8.296 6.92509C8.38133 7.01042 8.46667 7.09575 8.552 7.18109C9.064 7.77842 9.53333 8.63175 9.96 9.74109C10.3867 10.8078 10.7707 12.0024 11.112 13.3251C11.4533 14.6051 11.752 15.9704 12.008 17.4211C12.264 18.8718 12.4987 20.2798 12.712 21.6451C12.9253 23.0104 13.096 24.2904 13.224 25.4851C13.3947 26.6798 13.5653 27.6824 13.736 28.4931C13.9067 29.4744 14.0347 30.4984 14.12 31.5651C14.248 32.5891 14.3547 33.6131 14.44 34.6371C14.7387 33.4424 15.1013 32.2478 15.528 31.0531C15.9973 29.8158 16.4667 28.6211 16.936 27.4691C17.448 26.3171 17.9173 25.2291 18.344 24.2051C18.8133 23.1811 19.1973 22.3064 19.496 21.5811C20.3067 19.6184 21.1813 17.6771 22.12 15.7571C23.1013 13.8371 24.04 12.1944 24.936 10.8291C25.064 10.6158 25.192 10.4238 25.32 10.2531C25.448 10.0398 25.5547 9.95442 25.64 9.99709ZM10.024 30.3491C10.0667 30.4771 10.0667 30.7544 10.024 31.1811C9.98133 31.6078 9.91733 31.8211 9.832 31.8211C9.74667 31.8638 9.66133 31.6931 9.576 31.3091C9.49067 30.8824 9.40533 30.5838 9.32 30.4131C9.192 29.8584 9.02133 29.1758 8.808 28.3651C8.63733 27.5544 8.44533 26.7224 8.232 25.8691C8.06133 25.0158 7.89067 24.1838 7.72 23.3731C7.592 22.5624 7.50667 21.8584 7.464 21.2611C7.42133 20.9624 7.336 20.3864 7.208 19.5331C7.12267 18.6371 6.97333 17.5918 6.76 16.3971C6.58933 15.1598 6.376 13.8584 6.12 12.4931C5.864 11.1278 5.58667 9.80509 5.288 8.52509C5.032 7.24509 4.75467 6.11442 4.456 5.13309C4.2 4.10909 3.92267 3.36242 3.624 2.89309C3.368 2.55175 3.304 2.33842 3.432 2.25309C3.51733 2.16775 3.624 2.18909 3.752 2.31709C3.88 2.44509 3.98667 2.55175 4.072 2.63708C4.66933 3.14909 5.224 3.87442 5.736 4.81309C6.29067 5.75175 6.78133 6.77575 7.208 7.88509C7.67733 8.95175 8.06133 10.0398 8.36 11.1491C8.65867 12.2584 8.872 13.2611 9 14.1571C9.34133 16.7171 9.576 19.4478 9.704 22.3491C9.87467 25.2078 9.98133 27.8744 10.024 30.3491ZM24.04 21.5811C24.168 21.6238 24.1893 21.8158 24.104 22.1571C24.0187 22.4984 23.9547 22.7331 23.912 22.8611C23.7413 23.3731 23.528 23.9918 23.272 24.7171C23.0587 25.3998 22.8027 26.1251 22.504 26.8931C22.248 27.6184 21.9707 28.3224 21.672 29.0051C21.416 29.6878 21.16 30.2638 20.904 30.7331C20.7333 31.0744 20.392 31.9278 19.88 33.2931C19.4107 34.6584 18.8987 36.2158 18.344 37.9651C17.7893 39.6718 17.256 41.3998 16.744 43.1491C16.2747 44.8558 15.976 46.2424 15.848 47.3091C15.8053 47.6078 15.7413 47.7571 15.656 47.7571C15.528 47.7998 15.3573 47.7144 15.144 47.5011C14.9307 47.2451 14.632 46.9038 14.248 46.4771C13.864 46.0078 13.544 45.5384 13.288 45.0691C13.0747 44.6424 12.8187 44.0664 12.52 43.3411C12.264 42.6158 12.0293 41.9118 11.816 41.2291C11.6027 40.5038 11.4533 39.8851 11.368 39.3731C11.2827 38.8184 11.304 38.5198 11.432 38.4771C11.4747 38.4771 11.5387 38.5838 11.624 38.7971C11.752 38.9678 11.88 39.2024 12.008 39.5011C12.136 39.7571 12.2427 40.0131 12.328 40.2691C12.456 40.5251 12.5627 40.6958 12.648 40.7811C12.904 41.3358 13.1387 41.8691 13.352 42.3811C13.5653 42.8504 13.7787 43.3624 13.992 43.9171C14.2053 44.5144 14.44 45.0264 14.696 45.4531C14.9947 45.8371 15.1653 45.9864 15.208 45.9011C15.208 45.9011 15.208 45.7944 15.208 45.5811C15.208 45.3251 15.1867 45.0691 15.144 44.8131C15.1013 44.5144 15.0587 44.2158 15.016 43.9171C15.016 43.6184 15.016 43.4051 15.016 43.2771C15.016 41.6558 15.144 40.2051 15.4 38.9251C15.6987 37.6024 16.0613 36.4078 16.488 35.3411C17.384 33.1651 18.4293 30.9678 19.624 28.7491C20.8613 26.4878 22.056 24.3758 23.208 22.4131C23.2933 22.3278 23.4213 22.1784 23.592 21.9651C23.8053 21.7091 23.9547 21.5811 24.04 21.5811ZM5.544 30.6691C5.11733 28.1091 4.79733 25.5064 4.584 22.8611C4.37067 20.2158 4.15733 17.6344 3.944 15.1171C3.73067 12.5998 3.432 10.1891 3.048 7.88509C2.70667 5.58109 2.19467 3.46909 1.512 1.54909C1.46933 1.46375 1.42667 1.39975 1.384 1.35709C1.384 1.27175 1.42667 1.18642 1.512 1.10109C1.55467 1.05842 1.61867 1.10109 1.704 1.22908C1.78933 1.35708 1.85333 1.46375 1.896 1.54909C3.048 3.34109 3.90133 5.41042 4.456 7.75709C5.05333 10.0611 5.50133 12.5144 5.8 15.1171C6.09867 17.6771 6.33333 20.3011 6.504 22.9891C6.71733 25.6771 7.03733 28.3011 7.464 30.8611C7.72 32.4824 8.08267 34.1251 8.552 35.7891C9.064 37.4531 9.66133 39.0744 10.344 40.6531C11.0267 42.1891 11.7947 43.6611 12.648 45.0691C13.5013 46.4771 14.44 47.7144 15.464 48.7811C15.5067 48.8238 15.5067 48.8664 15.464 48.9091C15.4213 48.9944 15.3147 48.9944 15.144 48.9091C13.736 48.0131 12.4987 46.9251 11.432 45.6451C10.3653 44.3224 9.448 42.8718 8.68 41.2931C7.912 39.6718 7.272 37.9651 6.76 36.1731C6.248 34.3811 5.84267 32.5464 5.544 30.6691ZM67.5465 46.2211C69.0825 45.9651 70.5545 45.4958 71.9625 44.8131C73.4132 44.1304 74.7145 43.2558 75.8665 42.1891C75.9518 42.1464 76.1225 41.9971 76.3785 41.7411C76.6345 41.4851 76.8052 41.3998 76.8905 41.4851C76.9758 41.5704 76.9545 41.6984 76.8265 41.8691C76.6985 42.0398 76.5918 42.1891 76.5065 42.3171C75.6532 43.5544 74.5225 44.5784 73.1145 45.3891C71.7492 46.1571 70.3198 46.7758 68.8265 47.2451C67.5892 47.5864 66.2665 47.7144 64.8585 47.6291C63.4505 47.5011 62.1278 47.1384 60.8905 46.5411C60.5065 46.3704 60.2718 46.2424 60.1865 46.1571C60.1012 46.0291 60.1012 45.9438 60.1865 45.9011C60.2718 45.8584 60.3998 45.8371 60.5705 45.8371C60.7838 45.8371 60.9758 45.8584 61.1465 45.9011C61.6158 45.9864 62.1492 46.0718 62.7465 46.1571C63.3865 46.1998 64.0052 46.2424 64.6025 46.2851C65.2425 46.2851 65.8185 46.2851 66.3305 46.2851C66.8425 46.2851 67.2478 46.2638 67.5465 46.2211ZM58.9705 27.4051C58.7572 28.8984 58.6505 30.3704 58.6505 31.8211C58.6505 33.2291 58.7358 34.5731 58.9065 35.8531C59.1198 37.0904 59.4185 38.1998 59.8025 39.1811C60.2292 40.1624 60.7412 40.9731 61.3385 41.6131C62.0212 42.2958 62.8532 42.8291 63.8345 43.2131C64.8585 43.5544 65.9465 43.7251 67.0985 43.7251C68.2932 43.7251 69.5305 43.5544 70.8105 43.2131C72.1332 42.8718 73.4345 42.3384 74.7145 41.6131C74.9705 41.4424 75.1412 41.3998 75.2265 41.4851C75.3118 41.5704 75.2692 41.6771 75.0985 41.8051C74.9705 41.8904 74.8425 41.9758 74.7145 42.0611C73.6052 42.9144 72.4318 43.5971 71.1945 44.1091C69.9572 44.6211 68.6985 44.9411 67.4185 45.0691C66.1812 45.1971 64.9652 45.1331 63.7705 44.8771C62.6185 44.5784 61.5732 44.0451 60.6345 43.2771C59.7385 42.5091 59.0132 41.5918 58.4585 40.5251C57.9038 39.4158 57.4772 38.2211 57.1785 36.9411C56.9225 35.6184 56.7732 34.2531 56.7305 32.8451C56.6878 31.4371 56.7305 30.0504 56.8585 28.6851C57.0292 26.5091 57.4558 24.3118 58.1385 22.0931C58.8212 19.8744 59.7172 17.8264 60.8265 15.9491C61.9785 14.0718 63.3438 12.4291 64.9225 11.0211C66.5012 9.61309 68.2718 8.63175 70.2345 8.07709C71.2158 7.82109 72.2185 7.71442 73.2425 7.75709C74.2665 7.79975 75.2052 7.99175 76.0585 8.33309C76.9545 8.67442 77.7225 9.18642 78.3625 9.86909C79.0025 10.5091 79.4292 11.2984 79.6425 12.2371C79.8558 13.2611 79.7705 14.2638 79.3865 15.2451C79.0025 16.1838 78.4692 17.0158 77.7865 17.7411C77.1038 18.4238 76.3358 18.9144 75.4825 19.2131C74.6292 19.5118 73.8185 19.5118 73.0505 19.2131C73.0078 19.2131 72.9652 19.1491 72.9225 19.0211C72.9225 18.8931 73.0078 18.8504 73.1785 18.8931C73.6905 18.9784 74.2665 18.8718 74.9065 18.5731C75.5892 18.2318 76.1865 17.7838 76.6985 17.2291C77.2532 16.6744 77.6798 16.0131 77.9785 15.2451C78.3198 14.4771 78.4265 13.6878 78.2985 12.8771C78.1705 12.2798 77.8932 11.7678 77.4665 11.3411C77.0825 10.8718 76.5705 10.5091 75.9305 10.2531C75.2905 9.95442 74.5652 9.76242 73.7545 9.67709C72.9865 9.59175 72.1758 9.63442 71.3225 9.80509C69.7012 10.1038 68.1865 10.8291 66.7785 11.9811C65.4132 13.0904 64.1972 14.4558 63.1305 16.0771C62.0638 17.6984 61.1678 19.5118 60.4425 21.5171C59.7172 23.4798 59.2265 25.4424 58.9705 27.4051ZM64.0265 48.5891C64.4958 48.6318 64.9652 48.6531 65.4345 48.6531C65.9465 48.6531 66.2025 48.7171 66.2025 48.8451C66.2025 48.8878 66.1172 48.9091 65.9465 48.9091C65.7758 48.9518 65.5838 48.9731 65.3705 48.9731C65.1998 48.9731 65.0078 48.9731 64.7945 48.9731C64.5812 48.9731 64.4532 48.9731 64.4105 48.9731C63.0878 48.9731 61.7865 48.7811 60.5065 48.3971C59.2265 48.0131 58.0318 47.4798 56.9225 46.7971C55.8558 46.0718 54.8958 45.1971 54.0425 44.1731C53.1892 43.1491 52.5492 41.9758 52.1225 40.6531C51.2692 38.0504 50.7785 35.5118 50.6505 33.0371C50.5225 30.5624 50.6292 28.1304 50.9705 25.7411C51.1412 24.3758 51.4612 22.8398 51.9305 21.1331C52.4425 19.3838 53.1038 17.6131 53.9145 15.8211C54.7678 14.0291 55.8132 12.2584 57.0505 10.5091C58.3305 8.75975 59.8452 7.15975 61.5945 5.70909C63.4292 4.17309 65.4558 3.14909 67.6745 2.63708C69.9358 2.12509 72.0905 2.03975 74.1385 2.38108C76.1865 2.72242 77.9998 3.44775 79.5785 4.55709C81.1572 5.62375 82.2025 6.98909 82.7145 8.65309C82.7572 8.73842 82.7998 8.93042 82.8425 9.22909C82.8852 9.48509 82.8638 9.65575 82.7785 9.74109C82.7358 9.78375 82.6718 9.67709 82.5865 9.42109C82.5012 9.16509 82.4158 8.99442 82.3305 8.90909C80.5385 6.47709 78.5118 4.94109 76.2505 4.30109C73.9892 3.61842 71.7492 3.55442 69.5305 4.10909C67.3118 4.62109 65.2212 5.60242 63.2585 7.05309C61.2958 8.46109 59.7385 10.0398 58.5865 11.7891C56.5812 14.8184 55.0452 18.0398 53.9785 21.4531C52.9545 24.8664 52.4852 28.3864 52.5705 32.0131C52.6132 33.6771 52.7838 35.4264 53.0825 37.2611C53.4238 39.0958 54.0638 40.8451 55.0025 42.5091C55.9412 44.2158 57.2212 45.6451 58.8425 46.7971C60.5065 47.9064 62.2345 48.5038 64.0265 48.5891ZM54.8105 24.5251C55.1518 22.2638 55.6852 20.0664 56.4105 17.9331C57.1785 15.7998 58.1598 13.8584 59.3545 12.1091C60.5918 10.3171 62.1065 8.78109 63.8985 7.50109C65.6905 6.22109 67.8025 5.32509 70.2345 4.81309C71.0878 4.64242 72.0478 4.57842 73.1145 4.62109C74.1812 4.62109 75.2478 4.81309 76.3145 5.19709C77.3812 5.53842 78.3625 6.07175 79.2585 6.79708C80.1972 7.52242 80.9652 8.52509 81.5625 9.80509C82.1172 11.0424 82.3092 12.2584 82.1385 13.4531C81.9678 14.6478 81.6052 15.7358 81.0505 16.7171C80.4958 17.6558 79.8132 18.4451 79.0025 19.0851C78.1918 19.7251 77.4025 20.0878 76.6345 20.1731C76.1652 20.2584 75.9092 20.2584 75.8665 20.1731C75.8238 20.0451 76.0585 19.8958 76.5705 19.7251C77.3812 19.4691 78.1918 18.8291 79.0025 17.8051C79.8558 16.7384 80.3678 15.3944 80.5385 13.7731C80.6238 12.9624 80.5172 12.1731 80.2185 11.4051C79.9198 10.5944 79.4932 9.89042 78.9385 9.29309C78.3838 8.69575 77.7225 8.18375 76.9545 7.75709C76.1865 7.33042 75.3758 7.05309 74.5225 6.92509C72.6878 6.66909 71.0025 6.79708 69.4665 7.30909C67.9305 7.82109 66.5865 8.48242 65.4345 9.29309C64.3252 10.0611 63.4078 10.8291 62.6825 11.5971C61.9998 12.3651 61.5732 12.8771 61.4025 13.1331C60.0798 14.7971 58.9278 16.6104 57.9465 18.5731C56.9652 20.4931 56.1545 22.5198 55.5145 24.6531C55.5145 24.6958 55.4718 24.8451 55.3865 25.1011C55.3438 25.3571 55.2798 25.6344 55.1945 25.9331C55.1518 26.1891 55.0878 26.4451 55.0025 26.7011C54.9172 26.9144 54.8532 27.0211 54.8105 27.0211C54.7252 27.0211 54.6825 26.8931 54.6825 26.6371C54.6825 26.3811 54.6825 26.1251 54.6825 25.8691C54.6825 25.5704 54.7038 25.2931 54.7465 25.0371C54.7892 24.7811 54.8105 24.6104 54.8105 24.5251Z" fill="white"/>
</svg>
